<?xml version="1.0"?>

<!DOCTYPE svg PUBLIC '-//W3C//DTD SVG 1.0//EN' 'http://www.w3.org/TR/2001/REC-SVG-20010904/DTD/svg10.dtd'>
<svg fill-opacity="1" xmlns:xlink="http://www.w3.org/1999/xlink" color-rendering="auto" color-interpolation="auto" text-rendering="auto" stroke="black" stroke-linecap="square" stroke-miterlimit="10" shape-rendering="auto" stroke-opacity="1" fill="black" stroke-dasharray="none" font-weight="normal" stroke-width="1" xmlns="http://www.w3.org/2000/svg" font-family="&apos;Dialog&apos;" font-style="normal" stroke-linejoin="miter" font-size="12" stroke-dashoffset="0" image-rendering="auto">
  <!--Unicode Character 'THUMBS UP SIGN' (U+1F44D)-->
  <defs id="genericDefs" />
  <g>
    <g>
      <path d="M169.875 273.375 Q169.875 289.9688 162.9844 306.7031 L142.0312 306.7031 Q127.5469 323.2969 110.6719 331.0312 Q105.6094 331.4531 102.7969 331.4531 Q95.625 331.4531 86.4844 328.9219 L81.4219 331.4531 L75.375 331.4531 Q54.7031 331.4531 54.7031 317.5312 Q54.7031 315.8438 54.9844 314.1562 Q39.7969 312.8906 39.7969 299.25 Q39.7969 297.5625 40.0781 295.7344 Q28.6875 292.6406 28.6875 281.8125 Q28.6875 277.4531 31.7812 272.5312 Q24.1875 264.375 24.1875 254.3906 Q24.1875 228.7969 73.4062 228.7969 Q71.5781 214.875 65.6719 204.3281 Q56.1094 187.1719 56.1094 178.875 Q56.1094 166.6406 63.4219 160.0312 Q69.1875 154.8281 82.2656 151.7344 L89.2969 182.9531 L115.3125 210.6562 Q124.0312 222.8906 137.5312 238.2188 Q140.7656 240.3281 162.2812 240.1875 Q169.875 256.3594 169.875 273.375 ZM162.7031 274.9219 Q162.7031 261.1406 157.9219 247.7812 Q140.3438 247.7812 135.9141 245.7422 Q131.4844 243.7031 123.1875 232.5938 Q112.5 218.1094 111.375 216.9844 L83.1094 186.8906 L77.4844 160.875 Q63.4219 165.6562 63.4219 178.875 Q63.4219 185.4844 70.0312 196.875 Q80.4375 214.7344 81.1406 235.6875 Q31.2188 235.6875 31.2188 253.5469 Q31.2188 261.9844 37.0547 267.3984 Q42.8906 272.8125 51.3281 272.9531 L59.9062 273.0938 L85.3594 261.5625 Q79.5938 252.8438 69.8906 252.8438 Q64.8281 252.8438 54.1406 257.3438 L47.5312 257.625 L40.9219 250.5938 L52.3125 250.4531 Q61.7344 246.375 68.7656 246.375 Q86.7656 246.375 95.0625 264.6562 L90.2812 266.9062 Q99.1406 271.2656 103.9219 282.0938 L98.4375 284.4844 Q104.9062 288.5625 110.3906 298.4062 L101.6719 302.4844 Q108.8438 307.6875 113.2031 317.25 L95.9062 324.9844 Q99.9844 325.8281 103.0781 325.8281 Q104.0625 325.8281 108.5625 325.6875 Q127.2656 314.8594 138.9375 299.3906 L158.3438 299.3906 Q162.7031 286.5938 162.7031 274.9219 ZM94.2188 279 Q89.2969 272.3906 82.4062 270.5625 L61.4531 279.9844 L53.0156 279.9844 Q43.4531 279.9844 37.9688 277.0312 Q36.1406 279.5625 36.1406 281.8125 Q36.1406 290.5312 52.4531 290.5312 L68.2031 290.5312 L94.2188 279 ZM100.125 295.4531 Q95.7656 290.25 90.9844 287.8594 L69.4688 297.4219 L46.6875 297.2812 Q46.5469 298.125 46.2656 299.1094 Q46.2656 307.4062 61.875 307.4062 L73.2656 307.4062 L100.125 295.4531 ZM103.0781 314.4375 Q98.1562 308.1094 94.7812 305.5781 L74.6719 314.5781 L61.7344 314.5781 L61.7344 315.4219 Q61.7344 324.8438 75.375 324.8438 L80.0156 324.8438 L103.0781 314.4375 Z" stroke="none" />
    </g>
  </g>
</svg>
