<?xml version="1.0"?>

<!DOCTYPE svg PUBLIC '-//W3C//DTD SVG 1.0//EN' 'http://www.w3.org/TR/2001/REC-SVG-20010904/DTD/svg10.dtd'>
<svg fill-opacity="1" xmlns:xlink="http://www.w3.org/1999/xlink" color-rendering="auto" color-interpolation="auto" text-rendering="auto" stroke="black" stroke-linecap="square" stroke-miterlimit="10" shape-rendering="auto" stroke-opacity="1" fill="black" stroke-dasharray="none" font-weight="normal" stroke-width="1" xmlns="http://www.w3.org/2000/svg" font-family="&apos;Dialog&apos;" font-style="normal" stroke-linejoin="miter" font-size="12" stroke-dashoffset="0" image-rendering="auto">
  <!--Unicode Character 'THUMBS DOWN SIGN' (U+1F44E)-->
  <defs id="genericDefs" />
  <g>
    <g>
      <path d="M169.875 267.6094 Q169.875 293.2031 120.6562 293.2031 Q122.4844 307.125 128.3906 317.6719 Q137.9531 334.8281 137.9531 343.125 Q137.9531 355.3594 130.6406 361.9688 Q124.875 367.1719 111.7969 370.2656 L104.7656 339.0469 L78.75 311.3438 Q70.0312 299.1094 56.5312 283.7812 Q53.2969 281.6719 31.7812 281.8125 Q24.1875 265.6406 24.1875 248.625 Q24.1875 232.0312 31.0781 215.2969 L52.0312 215.2969 Q66.5156 198.7031 83.3906 190.9688 Q88.4531 190.5469 91.2656 190.5469 Q98.4375 190.5469 107.5781 193.0781 L112.6406 190.5469 L118.6875 190.5469 Q139.3594 190.5469 139.3594 204.4688 Q139.3594 206.1562 139.0781 207.8438 Q154.2656 209.1094 154.2656 222.75 Q154.2656 224.4375 153.9844 226.2656 Q165.375 229.3594 165.375 240.1875 Q165.375 244.5469 162.2812 249.4688 Q169.875 257.625 169.875 267.6094 ZM132.3281 207.4219 L132.3281 206.5781 Q132.3281 197.1562 118.6875 197.1562 L114.0469 197.1562 L90.9844 207.5625 Q95.9062 213.8906 99.2812 216.4219 L119.3906 207.4219 L132.3281 207.4219 ZM147.7969 222.8906 Q147.7969 214.5938 132.1875 214.5938 L120.7969 214.5938 L93.9375 226.5469 Q98.2969 231.75 103.0781 234.1406 L124.5938 224.5781 L147.375 224.7188 Q147.6562 223.875 147.7969 222.8906 ZM157.9219 240.1875 Q157.9219 231.4688 141.6094 231.4688 L125.8594 231.4688 L99.8438 243 Q104.7656 249.6094 111.6562 251.4375 L132.6094 242.0156 L141.0469 242.0156 Q150.6094 242.0156 156.0938 244.9688 Q157.9219 242.4375 157.9219 240.1875 ZM162.8438 268.4531 Q162.8438 260.0156 157.0078 254.6016 Q151.1719 249.1875 142.7344 249.0469 L134.1562 248.9062 L108.7031 260.4375 Q114.4688 269.1562 124.1719 269.1562 Q129.2344 269.1562 139.9219 264.6562 L146.5312 264.375 L153.1406 271.4062 L141.75 271.5469 Q132.3281 275.625 125.2969 275.625 Q107.2969 275.625 99 257.3438 L103.7812 255.0938 Q94.9219 250.7344 90.1406 239.9062 L95.625 237.5156 Q89.1562 233.4375 83.6719 223.5938 L92.3906 219.5156 Q85.2188 214.3125 80.8594 204.75 L98.1562 197.0156 Q94.0781 196.1719 90.9844 196.1719 Q90 196.1719 85.5 196.3125 Q66.7969 207.1406 55.125 222.6094 L35.7188 222.6094 Q31.3594 235.4062 31.3594 247.0781 Q31.3594 260.8594 36.1406 274.2188 Q53.7188 274.2188 58.3594 276.3281 Q62.5781 278.2969 70.875 289.4062 Q81.5625 303.8906 82.6875 305.0156 L110.9531 335.1094 L116.5781 361.125 Q130.6406 356.3438 130.6406 343.125 Q130.6406 336.5156 124.0312 325.125 Q113.625 307.2656 112.9219 286.3125 Q162.8438 286.3125 162.8438 268.4531 Z" stroke="none" />
    </g>
  </g>
</svg>
